<?xml version="1.0" encoding="UTF-8" ?>
<!DOCTYPE svg PUBLIC "-//W3C//DTD SVG 1.1//EN" "http://www.w3.org/Graphics/SVG/1.1/DTD/svg11.dtd">
<svg width="128pt" height="128pt" viewBox="0 0 128 128" version="1.1" xmlns="http://www.w3.org/2000/svg">
<path fill="#ffffff" d=" M 0.00 0.00 L 128.00 0.00 L 128.00 128.00 L 0.00 128.00 L 0.00 0.00 Z" />
<path fill="#404040" d=" M 12.26 11.26 C 13.68 10.42 15.44 10.78 17.00 10.64 C 48.67 10.71 80.34 10.62 112.00 10.68 C 114.96 10.30 117.66 13.05 117.25 16.00 C 117.25 48.35 117.28 80.70 117.24 113.05 C 117.45 115.17 116.07 117.37 113.96 117.86 C 111.32 118.23 108.64 118.11 105.98 118.09 C 75.61 118.04 45.24 118.15 14.88 118.04 C 12.11 118.33 9.50 115.89 9.82 113.08 C 9.80 80.72 9.82 48.35 9.81 15.99 C 9.60 14.06 10.59 12.22 12.26 11.26 Z" />
<path fill="#ffffff" d=" M 59.25 27.40 C 64.39 24.86 71.11 29.98 69.59 35.61 C 68.45 41.43 60.05 43.01 56.43 38.58 C 53.29 35.08 55.00 29.12 59.25 27.40 Z" />
<path fill="#ffffff" d=" M 55.19 44.51 C 60.22 44.52 65.25 44.52 70.27 44.52 C 70.22 55.99 70.26 67.47 70.21 78.94 C 70.16 85.81 68.04 93.10 62.67 97.70 C 56.59 103.22 47.53 104.05 39.93 101.65 C 39.93 96.94 39.94 92.23 39.91 87.53 C 43.58 88.90 48.17 90.20 51.57 87.47 C 54.76 84.61 55.13 79.99 55.22 75.97 C 55.23 65.49 55.17 55.00 55.19 44.51 Z" />
<path fill="#ffffff" d=" M 86.32 50.36 C 90.62 45.26 97.77 44.77 103.96 45.09 C 103.96 50.29 103.93 55.50 103.99 60.70 C 102.07 61.30 99.22 61.13 98.76 63.64 C 97.56 69.48 97.16 76.07 92.49 80.42 C 88.07 85.25 81.16 85.52 75.07 85.64 C 75.06 80.40 75.06 75.15 75.06 69.91 C 77.72 69.57 81.44 69.35 82.17 66.12 C 83.48 60.87 82.17 54.58 86.32 50.36 Z" />
<path fill="#ffffff" d=" M 26.24 67.28 C 32.49 64.39 40.29 70.08 39.41 76.92 C 39.14 84.07 29.85 88.05 24.27 83.80 C 18.46 79.89 19.64 69.71 26.24 67.28 Z" />
</svg>
